# xmcd
#
# Track frame offsets:
#	150
#	14317
#	33498
#	50104
#	68259
#	87150
#	105190
#	119311
#	138469
#	155121
#	173310
#	192251
#
# Disc length: 2802 seconds
#
# Revision: 1
# Processed by: cddbd v1.5.2PL0 Copyright (c) Steve Scherf et al.
# Submitted via: audiograbber 1.83.01
#
DISCID=910af00c
DTITLE=Chartbuster - CB20347
DYEAR=1900
DGENRE=Karaoke
TTITLE0=Brooks and Dunn - My Heart Is Lost To You (Vocal Version)
TTITLE1=Clark Family Experience - Going Away (Vocal Version)
TTITLE2=Michael Mason - Cape Lonely (Vocal Version)
TTITLE3=Anthony Smith - If That Ain't Country (Vocal Version)
TTITLE4=Kenny Rogers - Harder Cards (Vocal Version)
TTITLE5=Sawyer Brown - Can You Hear Me Now (Vocal Version)
TTITLE6=Brooks and Dunn - My Heart Is Lost To You
TTITLE7=Clark Family Experience - Going Away
TTITLE8=Michael Mason - Cape Lonely
TTITLE9=Anthony Smith - If That Ain't Country
TTITLE10=Kenny Rogers - Harder Cards
TTITLE11=Sawyer Brown - Can You Hear Me Now
EXTD=
EXTT0=
EXTT1=
EXTT2=
EXTT3=
EXTT4=
EXTT5=
EXTT6=
EXTT7=
EXTT8=
EXTT9=
EXTT10=
EXTT11=
PLAYORDER=
